<?xml version="1.0" encoding="utf-8"?>
<!-- Generator: Adobe Illustrator 23.1.0, SVG Export Plug-In . SVG Version: 6.00 Build 0)  -->
<svg version="1.1" id="Layer_1" xmlns="http://www.w3.org/2000/svg" xmlns:xlink="http://www.w3.org/1999/xlink" x="0px" y="0px"
	 viewBox="0 0 100 100" style="enable-background:new 0 0 100 100;" xml:space="preserve">
<style type="text/css">
	.st0{fill:#FF2424;}
	.st1{fill:#CE7220;}
</style>
<title></title>
<path class="st0" d="M47.8,32.8c-0.6,0-1,0.4-1,1v3c0,0.6,0.4,1,1,1s1-0.4,1-1v-3C48.8,33.2,48.3,32.8,47.8,32.8z"/>
<rect x="58.3" y="76.8" class="st0" width="5" height="3"/>
<path class="st0" d="M36,66h-2v-2.8h-1.8v20.5h35V63.3H36V66z M56.3,74.8h9v7h-9V74.8z"/>
<path class="st0" d="M56.3,15.8h-13c-9.9,0-18,8.1-18,18v42.5h5V54.8h39v21.5h5l0-42.5C74.3,23.8,66.2,15.8,56.3,15.8z M57.5,36.6
	l-6,6c0,0,0,0,0,0c-1,1-2.5,1-3.5,0l-6-6c-1-1-1-2.5,0-3.5l6-6c0,0,0,0,0,0c1-1,2.5-1,3.5,0l6,6C58.5,34,58.5,35.6,57.5,36.6z"/>
<path class="st0" d="M51.8,32.8c-0.6,0-1,0.4-1,1v3c0,0.6,0.4,1,1,1s1-0.4,1-1v-3C52.8,33.2,52.3,32.8,51.8,32.8z"/>
<path d="M65.3,74.8h-9v7h9V74.8z M63.3,79.8h-5v-3h5V79.8z"/>
<path d="M57.2,13.8c-0.5-4.1-4.3-7-8.4-6.5c-3.4,0.4-6.1,3.1-6.5,6.5c-10.7,0.5-19.1,9.3-19.1,20v51.4c0,4.2,3.4,7.5,7.5,7.5h37.9
	c4.2,0,7.5-3.4,7.5-7.5V33.7C76.2,23,67.8,14.3,57.2,13.8z M49.8,9.3c2.6,0,4.9,1.9,5.4,4.5H44.3C44.8,11.1,47.1,9.3,49.8,9.3z
	 M67.3,83.8h-35V63.3H34V66h2v-2.8h31.3V83.8z M74.3,76.3h-5V54.8h-39v21.5h-5V33.8c0-9.9,8.1-18,18-18h13c9.9,0,18,8.1,18,18
	L74.3,76.3z"/>
<path class="st1" d="M51.5,27.1c-1-1-2.5-1-3.5,0c0,0,0,0,0,0l-6,6c-1,1-1,2.5,0,3.5l6,6c1,1,2.5,1,3.5,0c0,0,0,0,0,0l6-6
	c1-1,1-2.5,0-3.5L51.5,27.1z M48.8,36.8c0,0.6-0.4,1-1,1s-1-0.4-1-1v-3c0-0.6,0.4-1,1-1s1,0.4,1,1V36.8z M52.8,36.8c0,0.6-0.4,1-1,1
	s-1-0.4-1-1v-3c0-0.6,0.4-1,1-1s1,0.4,1,1V36.8z"/>
</svg>
